<?xml version="1.0" encoding="utf-8"?>
<!-- Generator: Adobe Illustrator 17.1.0, SVG Export Plug-In . SVG Version: 6.00 Build 0)  -->
<!DOCTYPE svg PUBLIC "-//W3C//DTD SVG 1.1//EN" "http://www.w3.org/Graphics/SVG/1.1/DTD/svg11.dtd">
<svg version="1.1" id="Layer_1" xmlns="http://www.w3.org/2000/svg" xmlns:xlink="http://www.w3.org/1999/xlink" x="0px" y="0px"
	 viewBox="0 0 216 216" enable-background="new 0 0 216 216" xml:space="preserve">
<circle fill="#4069B2" cx="108" cy="108" r="108"/>
<path fill="#FFFFFF" d="M181.9,68.3c-5.2,2.3-10.7,3.8-16.6,4.5c6-3.6,10.5-9.2,12.7-16c-5.6,3.3-11.8,5.7-18.3,7
	c-5.3-5.6-12.8-9.1-21.1-9.1c-15.9,0-28.9,12.9-28.9,28.9c0,2.3,0.3,4.5,0.7,6.6C86.5,89,65.2,77.5,51,60c-2.5,4.3-3.9,9.2-3.9,14.5
	c0,10,5.1,18.9,12.8,24c-4.7-0.2-9.2-1.4-13.1-3.6c0,0.1,0,0.2,0,0.4c0,14,10,25.7,23.2,28.3c-2.4,0.7-5,1-7.6,1
	c-1.9,0-3.7-0.2-5.4-0.5c3.7,11.5,14.3,19.8,27,20.1c-9.9,7.7-22.3,12.4-35.9,12.4c-2.3,0-4.6-0.1-6.9-0.4c12.8,8.2,28,13,44.3,13
	c53.1,0,82.1-44,82.1-82.2c0-1.3,0-2.5-0.1-3.7C173.1,79.1,178,74.1,181.9,68.3z"/>
</svg>
