<svg xmlns="http://www.w3.org/2000/svg" viewBox="0 0 216 216" enable-background="new 0 0 216 216"><circle fill="#4069B2" cx="108" cy="108" r="108"/><path fill="#fff" d="M181.9 68.3c-5.2 2.3-10.7 3.8-16.6 4.5 6-3.6 10.5-9.2 12.7-16-5.6 3.3-11.8 5.7-18.3 7-5.3-5.6-12.8-9.1-21.1-9.1-15.9 0-28.9 12.9-28.9 28.9 0 2.3.3 4.5.7 6.6-23.9-1.2-45.2-12.7-59.4-30.2-2.5 4.3-3.9 9.2-3.9 14.5 0 10 5.1 18.9 12.8 24-4.7-.2-9.2-1.4-13.1-3.6v.4c0 14 10 25.7 23.2 28.3-2.4.7-5 1-7.6 1-1.9 0-3.7-.2-5.4-.5 3.7 11.5 14.3 19.8 27 20.1-9.9 7.7-22.3 12.4-35.9 12.4-2.3 0-4.6-.1-6.9-.4 12.8 8.2 28 13 44.3 13 53.1 0 82.1-44 82.1-82.2 0-1.3 0-2.5-.1-3.7 5.6-4.2 10.5-9.2 14.4-15z"/></svg>